<svg data-name="Layer 1" xmlns="http://www.w3.org/2000/svg" viewBox="0 0 120 39.94"><path d="M23.08 26.61l-7.69-13.33L0 39.94h46.17L30.78 13.28l-7.7 13.33zM56.52 13.31a13.32 13.32 0 1 0 13.31 13.31 13.31 13.31 0 0 0-13.31-13.31zM72.14 26.62a13.32 13.32 0 1 0 26.63 0zM106.71 13.31V0a13.31 13.31 0 0 0 0 26.62v13.31a13.31 13.31 0 0 0 0-26.62zM109.78 0a1.5 1.5 0 1 1-1.5 1.5 1.5 1.5 0 0 1 1.5-1.5zm0 2.67a1.17 1.17 0 1 0-1.17-1.17 1.17 1.17 0 0 0 1.17 1.17zm-.56-1.86a.09.09 0 0 1 .08-.08h.7a.51.51 0 0 1 .51.52.47.47 0 0 1-.3.46l.2.44a.08.08 0 0 1-.07.11h-.23a.09.09 0 0 1-.11-.06l-.19-.47h-.21v.45a.09.09 0 0 1-.08.08h-.21a.09.09 0 0 1-.08-.08zm.68.62a.17.17 0 0 0 .17-.18.16.16 0 0 0-.17-.17h-.33v.35z"/></svg>